<svg width="47" height="47" viewBox="0 0 47 47" fill="none" xmlns="http://www.w3.org/2000/svg">
<path d="M23.5001 3.91663C12.6901 3.91663 3.91675 12.69 3.91675 23.5C3.91675 34.31 12.6901 43.0833 23.5001 43.0833C34.3101 43.0833 43.0834 34.31 43.0834 23.5C43.0834 12.69 34.3101 3.91663 23.5001 3.91663ZM23.5001 9.79163C26.7509 9.79163 29.3751 12.4158 29.3751 15.6666C29.3751 18.9175 26.7509 21.5416 23.5001 21.5416C20.2492 21.5416 17.6251 18.9175 17.6251 15.6666C17.6251 12.4158 20.2492 9.79163 23.5001 9.79163ZM23.5001 37.6C18.6042 37.6 14.2763 35.0933 11.7501 31.2941C11.8088 27.397 19.5834 25.2625 23.5001 25.2625C27.3972 25.2625 35.1913 27.397 35.2501 31.2941C32.7238 35.0933 28.3959 37.6 23.5001 37.6Z" fill="white"/>
</svg>
