<svg width="34" height="31" viewBox="0 0 34 31" fill="none" xmlns="http://www.w3.org/2000/svg">
<path d="M24.65 8.68587L13.6667 18.8455L7.68334 13.3263L5.33334 15.5L13.6667 23.2084L27 10.875L24.65 8.68587ZM17 0.083374C7.80001 0.083374 0.333344 6.99004 0.333344 15.5C0.333344 24.01 7.80001 30.9167 17 30.9167C26.2 30.9167 33.6667 24.01 33.6667 15.5C33.6667 6.99004 26.2 0.083374 17 0.083374ZM17 27.8334C9.63334 27.8334 3.66668 22.3142 3.66668 15.5C3.66668 8.68587 9.63334 3.16671 17 3.16671C24.3667 3.16671 30.3333 8.68587 30.3333 15.5C30.3333 22.3142 24.3667 27.8334 17 27.8334Z" fill="white"/>
</svg>
