<svg width="38" height="37" viewBox="0 0 38 37" fill="none" xmlns="http://www.w3.org/2000/svg">
<path d="M31.6667 21.5833C33.4156 21.5833 34.8333 20.2028 34.8333 18.5C34.8333 16.7971 33.4156 15.4166 31.6667 15.4166C29.9178 15.4166 28.5 16.7971 28.5 18.5C28.5 20.2028 29.9178 21.5833 31.6667 21.5833Z" fill="white"/>
<path d="M6.33334 21.5833C8.08224 21.5833 9.5 20.2028 9.5 18.5C9.5 16.7971 8.08224 15.4166 6.33334 15.4166C4.58444 15.4166 3.16667 16.7971 3.16667 18.5C3.16667 20.2028 4.58444 21.5833 6.33334 21.5833Z" fill="white"/>
<path d="M19 33.9167C20.7489 33.9167 22.1667 32.5362 22.1667 30.8333C22.1667 29.1305 20.7489 27.75 19 27.75C17.2511 27.75 15.8333 29.1305 15.8333 30.8333C15.8333 32.5362 17.2511 33.9167 19 33.9167Z" fill="white"/>
<path d="M15.9125 13.2429L9.5475 7.01459H9.53167L9.04083 6.52126L6.7925 8.69501L13.1575 14.9388L13.1733 14.9233L13.6642 15.4167L15.9125 13.2429ZM22.0764 13.2845L29.051 6.51355L31.2867 8.69501L24.3121 15.4675L22.0764 13.2845ZM15.8492 23.68L13.6008 21.5063L7.22 27.6883L6.71333 28.1971L8.94583 30.3708L15.3267 24.1733L15.8492 23.68ZM31.2867 28.2125L24.9692 22.0304L24.3992 21.4908L22.1667 23.6646L28.4842 29.8467L29.0383 30.3863L31.2867 28.2125Z" fill="white"/>
<path d="M19 9.25004C20.7489 9.25004 22.1667 7.86959 22.1667 6.16671C22.1667 4.46383 20.7489 3.08337 19 3.08337C17.2511 3.08337 15.8333 4.46383 15.8333 6.16671C15.8333 7.86959 17.2511 9.25004 19 9.25004Z" fill="white"/>
</svg>
