<svg width="31" height="28" viewBox="0 0 31 28" fill="none" xmlns="http://www.w3.org/2000/svg">
<path d="M20.0208 23.8267L21.4792 26.1467C20.0792 26.7334 18.5479 27.1201 16.9583 27.2667V24.5734C18.0375 24.4534 19.0583 24.2001 20.0208 23.8267ZM3.93542 15.3334H0.989584C1.15 16.8001 1.57292 18.1867 2.21458 19.4667L4.75208 18.1334C4.34375 17.2534 4.06667 16.3201 3.93542 15.3334ZM20.0208 4.1734L21.4792 1.8534C20.0792 1.26673 18.5625 0.880065 16.9583 0.733398V3.42673C18.0375 3.54673 19.0583 3.80007 20.0208 4.1734ZM27.0646 12.6667H30.0104C29.85 11.2001 29.4271 9.8134 28.7854 8.5334L26.2479 9.86673C26.6563 10.7467 26.9333 11.6801 27.0646 12.6667ZM10.9792 23.8267L9.52083 26.1467C10.9208 26.7334 12.4521 27.1201 14.0417 27.2667V24.5734C12.9625 24.4534 11.9417 24.2001 10.9792 23.8267ZM14.0417 3.42673V0.733398C12.4375 0.880065 10.9208 1.26673 9.52083 1.8534L10.9792 4.1734C11.9417 3.80007 12.9625 3.54673 14.0417 3.42673ZM24.775 7.56007L27.3125 6.2134C26.3938 5.0534 25.2708 4.02673 24.0021 3.18673L22.5292 5.50673C23.3896 6.10673 24.1333 6.78673 24.775 7.56007ZM4.75208 9.86673L2.21458 8.5334C1.57292 9.8134 1.15 11.2001 0.989584 12.6667H3.93542C4.06667 11.6801 4.34375 10.7467 4.75208 9.86673ZM27.0646 15.3334C26.9333 16.3201 26.6563 17.2534 26.2479 18.1334L28.7854 19.4667C29.4271 18.1867 29.85 16.7867 30.0104 15.3334H27.0646ZM22.5437 22.4801L24.0167 24.8001C25.2854 23.9601 26.4083 22.9334 27.3271 21.7734L24.7896 20.4267C24.1333 21.2134 23.3896 21.8934 22.5437 22.4801ZM8.45625 5.52007L6.99792 3.18673C5.71458 4.04007 4.60625 5.0534 3.6875 6.22673L6.225 7.5734C6.86667 6.78673 7.61042 6.10673 8.45625 5.52007ZM6.225 20.4401L3.6875 21.7734C4.60625 22.9334 5.72917 23.9601 6.99792 24.8001L8.47083 22.4801C7.61042 21.8934 6.86667 21.2134 6.225 20.4401ZM16.9583 7.3334H14.0417V14.5467L20.2979 20.2667L22.3542 18.3867L16.9583 13.4534V7.3334Z" fill="white"/>
</svg>
