<svg width="20" height="20" viewBox="0 0 20 20" fill="none" xmlns="http://www.w3.org/2000/svg">
<path d="M13.1 17.37L14.1 19.11C13.14 19.55 12.09 19.84 11 19.95V17.93C11.74 17.84 12.44 17.65 13.1 17.37ZM2.07 11H0.0500031C0.160003 12.1 0.450003 13.14 0.890003 14.1L2.63 13.1C2.35 12.44 2.16 11.74 2.07 11ZM13.1 2.62999L14.1 0.889988C13.14 0.449988 12.1 0.159988 11 0.0499878V2.06999C11.74 2.15999 12.44 2.34999 13.1 2.62999ZM17.93 8.99999H19.95C19.84 7.89999 19.55 6.85999 19.11 5.89999L17.37 6.89999C17.65 7.55999 17.84 8.25999 17.93 8.99999ZM6.9 17.37L5.9 19.11C6.86 19.55 7.91 19.84 9 19.95V17.93C8.26 17.84 7.56 17.65 6.9 17.37ZM9 2.06999V0.0499878C7.9 0.159988 6.86 0.449988 5.9 0.889988L6.9 2.62999C7.56 2.34999 8.26 2.15999 9 2.06999ZM16.36 5.16999L18.1 4.15999C17.47 3.28999 16.7 2.51999 15.83 1.88999L14.82 3.62999C15.41 4.07999 15.92 4.58999 16.36 5.16999ZM2.63 6.89999L0.890003 5.89999C0.450003 6.85999 0.160003 7.89999 0.0500031 8.99999H2.07C2.16 8.25999 2.35 7.55999 2.63 6.89999ZM17.93 11C17.84 11.74 17.65 12.44 17.37 13.1L19.11 14.1C19.55 13.14 19.84 12.09 19.95 11H17.93ZM14.83 16.36L15.84 18.1C16.71 17.47 17.48 16.7 18.11 15.83L16.37 14.82C15.92 15.41 15.41 15.92 14.83 16.36ZM5.17 3.63999L4.17 1.88999C3.29 2.52999 2.53 3.28999 1.9 4.16999L3.64 5.17999C4.08 4.58999 4.59 4.07999 5.17 3.63999ZM3.64 14.83L1.9 15.83C2.53 16.7 3.3 17.47 4.17 18.1L5.18 16.36C4.59 15.92 4.08 15.41 3.64 14.83ZM11 4.99999H9V10.41L13.29 14.7L14.7 13.29L11 9.58999V4.99999Z" fill="black"/>
</svg>
